<?xml version="1.0" encoding="utf-8"?>
<svg version="1.1" xmlns="http://www.w3.org/2000/svg" xmlns:xlink="http://www.w3.org/1999/xlink" x="0px"
	 y="0px" viewBox="0 0 48 48" style="enable-background:new 0 0 48 48;" xml:space="preserve">
<title>music</title>
<g>
	<path d="M22.5,11.2c0-0.4,0.4-0.8,1.2-0.8c0.4,0,0.8,0,1.2,1.2c1.2,1.5,2.7,3.1,6.2,5.4c3.5,2.3,4.6,3.9,4.6,6.5
		c0,1.5-0.8,3.5-1.9,5c-1.2,1.5-2.7,2.7-3.5,2.7c-0.4,0-0.8-0.4-0.8-0.8c0-0.4,0-0.4,0.8-0.8c1.5-1.9,2.7-4.2,2.7-5.8
		c0-1.9-0.8-3.1-3.9-5c-2.7-1.9-3.5-2.7-4.2-3.5v16.2c0,1.9-0.4,3.5-1.5,4.2c-1.2,1.2-2.7,1.9-4.6,1.9c-2.3,0-4.2-1.5-4.2-3.5
		s1.9-3.9,5-3.9c1.2,0,2.3,0.4,3.5,0.8v-20H22.5z"/>
</g>
<path d="M32,1H5v46h40V14L32,1z M8,44V4h22l12,12v28H8z"/>
</svg>
