<?xml version="1.0" encoding="utf-8"?>
<svg version="1.1" xmlns="http://www.w3.org/2000/svg" xmlns:xlink="http://www.w3.org/1999/xlink" x="0px"
	 y="0px" viewBox="0 0 48 48" style="enable-background:new 0 0 48 48;" xml:space="preserve">
<title>ppt</title>
<g class="st0">
	<path d="M15.4,14.8h12.1c2.2,0,4.1,0.6,5.4,1.9c1.6,1,2.2,2.5,2.2,4.8s-0.6,3.8-1.9,4.8c-1.3,1-3.2,1.6-5.7,1.6h-8.6v8.6h-3.5V14.8
		z M18.9,17v8.3h8c1.3,0,2.5-0.3,3.5-1c1-0.6,1.3-1.9,1.3-3.2s-0.3-2.5-1.3-3.2c-1-0.3-2.2-1-3.5-1H18.9z"/>
</g>
<path d="M32,1H5v46h40V14L32,1z M8,44V4h22l12,12v28H8z"/>
</svg>
